{
  "accessors": [
    {
      "bufferView": 2,
      "componentType": 5126,
      "count": 4004,
      "max": [
        1.1885364055633545,
        0.4183197319507599,
        1.2199680805206299
      ],
      "min": [
        -1.1885364055633545,
        -4.9923295974731445,
        -1.2199680805206299
      ],
      "type": "VEC3"
    },
    {
      "bufferView": 2,
      "byteOffset": 48048,
      "componentType": 5126,
      "count": 4004,
      "max": [
        1.0,
        1.0,
        1.0
      ],
      "min": [
        -1.0,
        -1.0,
        -1.0
      ],
      "type": "VEC3"
    },
    {
      "bufferView": 0,
      "componentType": 5125,
      "count": 13356,
      "type": "SCALAR"
    },
    {
      "bufferView": 2,
      "byteOffset": 96096,
      "componentType": 5126,
      "count": 1692,
      "max": [
        0.6100006699562073,
        0.5432870388031006,
        0.6926813125610352
      ],
      "min": [
        -0.7104395031929016,
        -4.146766662597656,
        -0.6926813125610352
      ],
      "type": "VEC3"
    },
    {
      "bufferView": 2,
      "byteOffset": 116400,
      "componentType": 5126,
      "count": 1692,
      "max": [
        1.0,
        1.0,
        1.0
      ],
      "min": [
        -1.0,
        -1.0,
        -1.0
      ],
      "type": "VEC3"
    },
    {
      "bufferView": 1,
      "componentType": 5126,
      "count": 1692,
      "max": [
        1.0,
        1.0
      ],
      "min": [
        0.0,
        0.0
      ],
      "type": "VEC2"
    },
    {
      "bufferView": 0,
      "byteOffset": 53424,
      "componentType": 5125,
      "count": 5208,
      "type": "SCALAR"
    },
    {
      "bufferView": 2,
      "byteOffset": 136704,
      "componentType": 5126,
      "count": 1586,
      "max": [
        0.2532980442047119,
        0.7558960318565369,
        0.8643879294395447
      ],
      "min": [
        -5.883426666259766,
        -0.8912779092788696,
        -0.8600152134895325
      ],
      "type": "VEC3"
    },
    {
      "bufferView": 2,
      "byteOffset": 155736,
      "componentType": 5126,
      "count": 1586,
      "max": [
        1.0,
        1.0,
        1.0
      ],
      "min": [
        -1.0,
        -0.9999518990516663,
        -1.0
      ],
      "type": "VEC3"
    },
    {
      "bufferView": 0,
      "byteOffset": 74256,
      "componentType": 5125,
      "count": 5142,
      "type": "SCALAR"
    },
    {
      "bufferView": 2,
      "byteOffset": 174768,
      "componentType": 5126,
      "count": 5525,
      "max": [
        1.031391978263855,
        1.0049635171890259,
        1.031391978263855
      ],
      "min": [
        -1.031391978263855,
        0.6800551414489746,
        -1.031391978263855
      ],
      "type": "VEC3"
    },
    {
      "bufferView": 2,
      "byteOffset": 241068,
      "componentType": 5126,
      "count": 5525,
      "max": [
        0.9999963045120239,
        0.9999935626983643,
        0.9999963045120239
      ],
      "min": [
        -0.9999963045120239,
        -0.9999663829803467,
        -0.9999963045120239
      ],
      "type": "VEC3"
    },
    {
      "bufferView": 1,
      "byteOffset": 13536,
      "componentType": 5126,
      "count": 5525,
      "max": [
        1.0000001192092896,
        1.0000001192092896
      ],
      "min": [
        0.0,
        0.01000000536441803
      ],
      "type": "VEC2"
    },
    {
      "bufferView": 0,
      "byteOffset": 94824,
      "componentType": 5125,
      "count": 24576,
      "type": "SCALAR"
    },
    {
      "bufferView": 2,
      "byteOffset": 307368,
      "componentType": 5126,
      "count": 144,
      "max": [
        1.0680744647979736,
        0.30850088596343994,
        0.9085583090782166
      ],
      "min": [
        -1.068074345588684,
        -0.2746083736419678,
        -1.1230398416519165
      ],
      "type": "VEC3"
    },
    {
      "bufferView": 2,
      "byteOffset": 309096,
      "componentType": 5126,
      "count": 144,
      "max": [
        0.9510565996170044,
        1.0,
        1.0
      ],
      "min": [
        -0.9510565996170044,
        -1.0,
        -1.0
      ],
      "type": "VEC3"
    },
    {
      "bufferView": 1,
      "byteOffset": 57736,
      "componentType": 5126,
      "count": 144,
      "max": [
        1.0,
        1.0
      ],
      "min": [
        2.9802322387695313e-08,
        0.055835917592048645
      ],
      "type": "VEC2"
    },
    {
      "bufferView": 0,
      "byteOffset": 193128,
      "componentType": 5125,
      "count": 240,
      "type": "SCALAR"
    },
    {
      "bufferView": 3,
      "componentType": 5126,
      "count": 62,
      "max": [
        5.0
      ],
      "min": [
        0.0416666679084301
      ],
      "type": "SCALAR"
    },
    {
      "bufferView": 5,
      "componentType": 5126,
      "count": 62,
      "max": [
        0.0,
        1.0,
        -0.0,
        1.0
      ],
      "min": [
        0.0,
        -0.9986295104026794,
        -0.0,
        7.549790126404332e-08
      ],
      "type": "VEC4"
    },
    {
      "bufferView": 3,
      "byteOffset": 248,
      "componentType": 5126,
      "count": 26,
      "max": [
        5.0
      ],
      "min": [
        0.0416666679084301
      ],
      "type": "SCALAR"
    },
    {
      "bufferView": 4,
      "componentType": 5126,
      "count": 26,
      "max": [
        1.0000001192092896,
        1.0,
        1.0000001192092896
      ],
      "min": [
        0.9999998807907104,
        1.0,
        0.9999998807907104
      ],
      "type": "VEC3"
    },
    {
      "bufferView": 3,
      "byteOffset": 352,
      "componentType": 5126,
      "count": 61,
      "max": [
        5.0
      ],
      "min": [
        0.0416666679084301
      ],
      "type": "SCALAR"
    },
    {
      "bufferView": 4,
      "byteOffset": 312,
      "componentType": 5126,
      "count": 61,
      "max": [
        1.7282520532608032,
        0.2097754329442978,
        1.7282520532608032
      ],
      "min": [
        -1.7282520532608032,
        0.2097754329442978,
        -1.7282520532608032
      ],
      "type": "VEC3"
    },
    {
      "bufferView": 3,
      "byteOffset": 596,
      "componentType": 5126,
      "count": 120,
      "max": [
        5.0
      ],
      "min": [
        0.0416666679084301
      ],
      "type": "SCALAR"
    },
    {
      "bufferView": 5,
      "byteOffset": 992,
      "componentType": 5126,
      "count": 120,
      "max": [
        0.0,
        1.0,
        -0.0,
        1.0
      ],
      "min": [
        0.0,
        -1.0,
        -0.0,
        1.1924881526681474e-08
      ],
      "type": "VEC4"
    },
    {
      "bufferView": 3,
      "byteOffset": 1076,
      "componentType": 5126,
      "count": 107,
      "max": [
        5.0
      ],
      "min": [
        0.0416666679084301
      ],
      "type": "SCALAR"
    },
    {
      "bufferView": 4,
      "byteOffset": 1044,
      "componentType": 5126,
      "count": 107,
      "max": [
        1.2546054124832153,
        1.2546051740646362,
        1.2546054124832153
      ],
      "min": [
        1.2546049356460571,
        1.2546051740646362,
        1.2546049356460571
      ],
      "type": "VEC3"
    },
    {
      "bufferView": 3,
      "byteOffset": 1504,
      "componentType": 5126,
      "count": 120,
      "max": [
        5.0
      ],
      "min": [
        0.0416666679084301
      ],
      "type": "SCALAR"
    },
    {
      "bufferView": 5,
      "byteOffset": 2912,
      "componentType": 5126,
      "count": 120,
      "max": [
        1.0,
        0.0,
        -0.0,
        1.0
      ],
      "min": [
        -0.999236524105072,
        0.0,
        -0.0,
        3.3776623808989825e-07
      ],
      "type": "VEC4"
    },
    {
      "bufferView": 3,
      "byteOffset": 1984,
      "componentType": 5126,
      "count": 39,
      "max": [
        5.0
      ],
      "min": [
        0.0416666679084301
      ],
      "type": "SCALAR"
    },
    {
      "bufferView": 4,
      "byteOffset": 2328,
      "componentType": 5126,
      "count": 39,
      "max": [
        1.0,
        1.0,
        1.0
      ],
      "min": [
        1.0,
        0.9999998807907104,
        0.9999998807907104
      ],
      "type": "VEC3"
    }
  ],
  "animations": [
    {
      "channels": [
        {
          "sampler": 0,
          "target": {
            "node": 3,
            "path": "rotation"
          }
        },
        {
          "sampler": 1,
          "target": {
            "node": 3,
            "path": "scale"
          }
        },
        {
          "sampler": 2,
          "target": {
            "node": 5,
            "path": "translation"
          }
        },
        {
          "sampler": 3,
          "target": {
            "node": 5,
            "path": "rotation"
          }
        },
        {
          "sampler": 4,
          "target": {
            "node": 5,
            "path": "scale"
          }
        },
        {
          "sampler": 5,
          "target": {
            "node": 7,
            "path": "rotation"
          }
        },
        {
          "sampler": 6,
          "target": {
            "node": 7,
            "path": "scale"
          }
        }
      ],
      "name": "Animation",
      "samplers": [
        {
          "input": 18,
          "interpolation": "LINEAR",
          "output": 19
        },
        {
          "input": 20,
          "interpolation": "LINEAR",
          "output": 21
        },
        {
          "input": 22,
          "interpolation": "LINEAR",
          "output": 23
        },
        {
          "input": 24,
          "interpolation": "LINEAR",
          "output": 25
        },
        {
          "input": 26,
          "interpolation": "LINEAR",
          "output": 27
        },
        {
          "input": 28,
          "interpolation": "LINEAR",
          "output": 29
        },
        {
          "input": 30,
          "interpolation": "LINEAR",
          "output": 31
        }
      ]
    }
  ],
  "asset": {
    "extras": {
      "author": "Samuel Francis Johnson (Oneironauticus) (https://sketchfab.com/oneironauticus)",
      "license": "CC-BY-4.0 (http://creativecommons.org/licenses/by/4.0/)",
      "source": "https://sketchfab.com/3d-models/circular-gear-animation-7e21e2189a194b288e29a68774494915",
      "title": "Circular Gear Animation"
    },
    "generator": "Sketchfab-15.24.0",
    "version": "2.0"
  },
  "bufferViews": [
    {
      "buffer": 0,
      "byteLength": 194088,
      "name": "floatBufferViews",
      "target": 34963
    },
    {
      "buffer": 0,
      "byteLength": 58888,
      "byteOffset": 194088,
      "byteStride": 8,
      "name": "floatBufferViews",
      "target": 34962
    },
    {
      "buffer": 0,
      "byteLength": 310824,
      "byteOffset": 252976,
      "byteStride": 12,
      "name": "floatBufferViews",
      "target": 34962
    },
    {
      "buffer": 0,
      "byteLength": 2140,
      "byteOffset": 563800,
      "name": "floatBufferViews"
    },
    {
      "buffer": 0,
      "byteLength": 2796,
      "byteOffset": 565940,
      "byteStride": 12,
      "name": "floatBufferViews"
    },
    {
      "buffer": 0,
      "byteLength": 4832,
      "byteOffset": 568736,
      "byteStride": 16,
      "name": "floatBufferViews"
    }
  ],
  "buffers": [
    {
      "byteLength": 573568,
      "uri": "scene.bin"
    }
  ],
  "materials": [
    {
      "doubleSided": true,
      "name": "Scene_-_Root",
      "pbrMetallicRoughness": {
        "metallicFactor": 0.0,
        "roughnessFactor": 0.6
      }
    }
  ],
  "meshes": [
    {
      "name": "Object_0",
      "primitives": [
        {
          "attributes": {
            "NORMAL": 1,
            "POSITION": 0
          },
          "indices": 2,
          "material": 0,
          "mode": 4
        }
      ]
    },
    {
      "name": "Object_1",
      "primitives": [
        {
          "attributes": {
            "NORMAL": 4,
            "POSITION": 3,
            "TEXCOORD_0": 5
          },
          "indices": 6,
          "material": 0,
          "mode": 4
        }
      ]
    },
    {
      "name": "Object_2",
      "primitives": [
        {
          "attributes": {
            "NORMAL": 8,
            "POSITION": 7
          },
          "indices": 9,
          "material": 0,
          "mode": 4
        }
      ]
    },
    {
      "name": "Object_3",
      "primitives": [
        {
          "attributes": {
            "NORMAL": 11,
            "POSITION": 10,
            "TEXCOORD_0": 12
          },
          "indices": 13,
          "material": 0,
          "mode": 4
        }
      ]
    },
    {
      "name": "Object_4",
      "primitives": [
        {
          "attributes": {
            "NORMAL": 15,
            "POSITION": 14,
            "TEXCOORD_0": 16
          },
          "indices": 17,
          "material": 0,
          "mode": 4
        }
      ]
    }
  ],
  "nodes": [
    {
      "children": [
        1
      ],
      "matrix": [
        1.0,
        0.0,
        0.0,
        0.0,
        0.0,
        2.220446049250313e-16,
        -1.0,
        0.0,
        0.0,
        1.0,
        2.220446049250313e-16,
        0.0,
        0.0,
        0.0,
        0.0,
        1.0
      ],
      "name": "Sketchfab_model"
    },
    {
      "children": [
        2
      ],
      "name": "root"
    },
    {
      "children": [
        3,
        5,
        7,
        9,
        11
      ],
      "matrix": [
        1.0,
        0.0,
        0.0,
        0.0,
        0.0,
        2.220446049250313e-16,
        1.0,
        0.0,
        0.0,
        -1.0,
        2.220446049250313e-16,
        0.0,
        0.0,
        0.0,
        0.0,
        1.0
      ],
      "name": "GLTF_SceneRootNode"
    },
    {
      "children": [
        4
      ],
      "name": "Zentralzahnrad_0"
    },
    {
      "mesh": 0,
      "name": "Object_4"
    },
    {
      "children": [
        6
      ],
      "name": "Umrunder_1",
      "rotation": [
        0.0,
        -0.15643447637557983,
        0.0,
        0.9876883625984192
      ],
      "scale": [
        1.2546052932739258,
        1.2546051740646362,
        1.2546052932739258
      ],
      "translation": [
        1.7187845706939697,
        0.2097754329442978,
        0.18065153062343597
      ]
    },
    {
      "mesh": 1,
      "name": "Object_6"
    },
    {
      "children": [
        8
      ],
      "name": "Horizontalradstange_2",
      "rotation": [
        -0.15257352590560913,
        0.0,
        0.0,
        0.9882920980453491
      ],
      "translation": [
        2.4906461238861084,
        1.427192211151123,
        0.0
      ]
    },
    {
      "mesh": 2,
      "name": "Object_8"
    },
    {
      "children": [
        10
      ],
      "matrix": [
        2.480898857116699,
        0.0,
        0.0,
        0.0,
        0.0,
        2.480898857116699,
        0.0,
        0.0,
        0.0,
        0.0,
        2.480898857116699,
        0.0,
        0.0,
        -4.2384138107299805,
        0.0,
        1.0
      ],
      "name": "Basis_3"
    },
    {
      "mesh": 3,
      "name": "Object_10"
    },
    {
      "children": [
        12
      ],
      "matrix": [
        3.337065380076005e-08,
        -0.39588552713394026,
        -0.0,
        0.0,
        0.39588552713394026,
        3.337065380076005e-08,
        0.0,
        0.0,
        0.0,
        0.0,
        0.39588552713394165,
        0.0,
        -3.081900119781494,
        1.4271923303604126,
        0.0,
        1.0
      ],
      "name": "Wandhalterung_4"
    },
    {
      "mesh": 4,
      "name": "Object_12"
    }
  ],
  "scene": 0,
  "scenes": [
    {
      "name": "Sketchfab_Scene",
      "nodes": [
        0
      ]
    }
  ]
}
